<?xml version="1.0" encoding="UTF-8" standalone="no"?>
<!-- Created with Inkscape (http://www.inkscape.org/) -->

<svg
   width="4.0012417mm"
   height="4.0008054mm"
   viewBox="0 0 4.0012417 4.0008054"
   version="1.1"
   id="svg1"
   xmlns="http://www.w3.org/2000/svg"
   xmlns:svg="http://www.w3.org/2000/svg">
  <defs
     id="defs1">
    <linearGradient
       id="swatch77">
      <stop
         style="stop-color:#009de5;stop-opacity:1;"
         offset="0"
         id="stop77" />
    </linearGradient>
    <linearGradient
       id="swatch76">
      <stop
         style="stop-color:#009de5;stop-opacity:1;"
         offset="0"
         id="stop76" />
    </linearGradient>
    <linearGradient
       id="swatch75">
      <stop
         style="stop-color:#009de5;stop-opacity:1;"
         offset="0"
         id="stop75" />
    </linearGradient>
    <linearGradient
       id="swatch74">
      <stop
         style="stop-color:#00a3a3;stop-opacity:1;"
         offset="0"
         id="stop74" />
    </linearGradient>
  </defs>
  <g
     id="layer1"
     transform="translate(-125,-203.99998)">
    <path
       id="path51"
       style="fill:#00c1e5;fill-opacity:1;stroke:#000000;stroke-width:0"
       d="M 125.00042,203.99999 125,205.47544 v 0.0401 l 4.2e-4,0.0406 -4.2e-4,0.60044 h 0.58803 4.1e-4 l 0.90851,4.1e-4 v -0.64096 h 0.62897 v -0.87997 -0.63517 h -0.62318 -0.006 l -0.005,-4.2e-4 z m 2.28801,0 v 0.69637 0.98047 h 1.01231 l 0.70009,4.1e-4 4.1e-4,-0.98046 v -0.69679 h -0.70009 z m 0,1.67684 h -0.62897 v 0.64096 h 0.62856 z m 0.16293,0.16127 -4.1e-4,0.64055 h -0.62897 v 0.88039 0.64055 l 0.62855,4e-4 v -4e-4 l 1.54947,4e-4 8e-4,-1.52093 v -0.64054 l -0.64095,-4.2e-4 z m -1.78104,0.47762 -0.6699,8e-4 v 0.95689 0.72738 l 0.66949,-0.003 0.98831,0.003 v -0.72738 -0.95731 z" />
  </g>
</svg>
