<?xml version="1.0" encoding="UTF-8" standalone="no"?>
<!-- Created with Inkscape (http://www.inkscape.org/) -->

<svg
   width="3.9999981mm"
   height="4.0002565mm"
   viewBox="0 0 3.9999981 4.0002565"
   version="1.1"
   id="svg1"
   xmlns="http://www.w3.org/2000/svg"
   xmlns:svg="http://www.w3.org/2000/svg">
  <defs
     id="defs1">
    <linearGradient
       id="swatch77">
      <stop
         style="stop-color:#009de5;stop-opacity:1;"
         offset="0"
         id="stop77" />
    </linearGradient>
    <linearGradient
       id="swatch76">
      <stop
         style="stop-color:#009de5;stop-opacity:1;"
         offset="0"
         id="stop76" />
    </linearGradient>
    <linearGradient
       id="swatch75">
      <stop
         style="stop-color:#009de5;stop-opacity:1;"
         offset="0"
         id="stop75" />
    </linearGradient>
    <linearGradient
       id="swatch74">
      <stop
         style="stop-color:#00a3a3;stop-opacity:1;"
         offset="0"
         id="stop74" />
    </linearGradient>
  </defs>
  <g
     id="layer1"
     transform="translate(-120,-203.99996)">
    <path
       id="path68-0"
       style="fill:#00c1e5;fill-opacity:1;stroke:#000000;stroke-width:0"
       d="m 120,203.99996 v 0.82903 c 0.27638,-0.27575 0.5522,-0.55167 0.82834,-0.82766 -0.27622,-4e-4 -0.55214,-7.8e-4 -0.82834,-0.001 z m 2.00275,0.003 c -0.19496,0.19534 -0.3903,0.38969 -0.58549,0.5848 -0.27613,0.27599 -0.55265,0.55191 -0.82903,0.82766 -0.19544,0.195 -0.39005,0.39047 -0.58549,0.58547 l 0.58549,0.58618 0.82766,0.82765 0.58548,0.58549 c 0.19513,-0.19523 0.39032,-0.39027 0.58548,-0.58549 0.27626,-0.27632 0.55208,-0.55272 0.82836,-0.82903 0.19493,-0.19496 0.38983,-0.38983 0.58478,-0.5848 -0.1949,-0.19493 -0.38922,-0.38984 -0.5841,-0.58479 -0.27563,-0.27574 -0.55137,-0.55121 -0.82697,-0.82697 -0.19524,-0.19535 -0.39093,-0.3908 -0.58617,-0.58617 z m 1.17096,0 c 0.27561,0.27575 0.55066,0.55193 0.82628,0.82766 3e-5,-0.27552 -4e-5,-0.55144 0,-0.82696 -0.27559,2.5e-4 -0.55067,-2.6e-4 -0.82628,-7e-4 z m -1.53767,1.11799 h 0.72997 l 0.51668,0.51669 v 0.72927 l -0.51531,0.51531 h -0.73064 l -0.51669,-0.516 v -0.72996 z m 0.18095,0.4355 -0.26007,0.26076 v 0.36806 l 0.26076,0.26145 h 0.36876 l 0.26076,-0.26075 v -0.36876 l -0.26076,-0.26076 z m 2.183,1.61473 c -0.27626,0.27631 -0.5521,0.55269 -0.82834,0.82903 0.2762,3e-5 0.55215,-4e-5 0.82834,0 -1e-5,-0.27636 0,-0.55267 0,-0.82903 z m -3.99725,0.001 v 0.82766 c 0.27574,-1e-5 0.55124,0 0.82697,0 z" />
  </g>
</svg>
