<?xml version="1.0" encoding="UTF-8" standalone="no"?>
<!-- Created with Inkscape (http://www.inkscape.org/) -->

<svg
   width="20.000008mm"
   height="20.000008mm"
   viewBox="0 0 20.000008 20.000008"
   version="1.1"
   id="svg1"
   xmlns="http://www.w3.org/2000/svg"
   xmlns:svg="http://www.w3.org/2000/svg">
  <defs
     id="defs1" />
  <g
     id="g22"
     transform="translate(-191.00001,-213.86459)">
    <g
       id="g2-7-5"
       transform="matrix(0.37902276,0,0,0.37890513,250.76272,146.29438)"
       style="fill:#00c1e5;fill-opacity:1">
      <path
         d="m -127.46467,195.4706 h -7.66683 l -5.41499,5.41468 v 7.6615 l 5.42459,5.42672 h 7.66927 l 5.41498,-5.41703 v -7.65915 z"
         style="fill:#00c1e5;fill-opacity:1;stroke:#000000;stroke-width:0;stroke-dasharray:none"
         id="path13-5-3-5" />
      <path
         id="path19-3-6-4"
         style="fill:#00c1e5;fill-opacity:1;stroke:#000000;stroke-width:0;stroke-dasharray:none"
         d="m -131.3043,178.33017 -7.73052,7.73507 h 15.46114 z m 7.73062,7.73507 10.94437,10.94366 v -10.94366 z m 10.94437,10.94366 v 15.44567 l 7.72084,-7.72038 z m 0,15.44567 -10.9201,10.92429 h 10.9201 z m -10.9201,10.92429 h -15.46602 l 7.73061,7.73497 z m -15.46602,0 -10.93949,-10.94366 v 10.94366 z m -10.93949,-10.94366 v -15.45057 l -7.72083,7.72528 z m 0,-15.45057 10.9201,-10.91939 h -10.9201 z" />
    </g>
  </g>
</svg>
