<?xml version="1.0" encoding="UTF-8" standalone="no"?>
<!-- Created with Inkscape (http://www.inkscape.org/) -->

<svg
   width="3.9720445mm"
   height="3.9720445mm"
   viewBox="0 0 3.9720445 3.9720445"
   version="1.1"
   id="svg1"
   xmlns="http://www.w3.org/2000/svg"
   xmlns:svg="http://www.w3.org/2000/svg">
  <defs
     id="defs1">
    <linearGradient
       id="swatch77">
      <stop
         style="stop-color:#009de5;stop-opacity:1;"
         offset="0"
         id="stop77" />
    </linearGradient>
    <linearGradient
       id="swatch76">
      <stop
         style="stop-color:#009de5;stop-opacity:1;"
         offset="0"
         id="stop76" />
    </linearGradient>
    <linearGradient
       id="swatch75">
      <stop
         style="stop-color:#009de5;stop-opacity:1;"
         offset="0"
         id="stop75" />
    </linearGradient>
    <linearGradient
       id="swatch74">
      <stop
         style="stop-color:#00a3a3;stop-opacity:1;"
         offset="0"
         id="stop74" />
    </linearGradient>
  </defs>
  <g
     id="layer1"
     transform="translate(-110.01381,-204.01458)">
    <path
       id="path68-5"
       style="fill:#00c1e5;fill-opacity:1;stroke:#000000;stroke-width:0"
       d="m 112.00165,204.01458 c -0.19369,0.19407 -0.38821,0.38772 -0.58215,0.58156 0.38799,4.4e-4 0.77571,6.1e-4 1.16371,6.1e-4 -0.19399,-0.1941 -0.38757,-0.38807 -0.58156,-0.58217 z m 0.58156,0.58217 c 0.27382,0.27397 0.54785,0.54835 0.8217,0.8223 2e-5,-0.27375 -4e-5,-0.54795 0,-0.8217 -0.27382,2.5e-4 -0.54789,-1.7e-4 -0.8217,-6e-4 z m 0.8217,0.8223 c -4e-5,0.38739 0,0.7745 0,1.16189 0.19368,-0.19371 0.38725,-0.38725 0.58095,-0.58095 -0.19364,-0.19368 -0.38732,-0.38725 -0.58095,-0.58094 z m 0,1.16189 c -0.2745,0.27453 -0.54905,0.54958 -0.82352,0.82412 0.27442,3e-5 0.54909,-2e-5 0.82352,0 -2e-5,-0.27457 -1e-5,-0.54953 0,-0.82412 z m -0.82352,0.82412 c -0.38785,-4e-5 -0.77586,-5.9e-4 -1.16371,-6e-4 l 0.58215,0.58216 c 0.19389,-0.19397 0.38765,-0.38759 0.58156,-0.58156 z m -1.16371,-6e-4 -0.8217,-0.82231 v 0.82231 c 0.27396,-2e-5 0.54773,-1e-5 0.8217,0 z m -0.8217,-0.82231 v -1.16371 c -0.19418,0.19374 -0.38797,0.38781 -0.58216,0.58155 z m 0,-1.16371 c 0.27459,-0.27398 0.54917,-0.54809 0.82352,-0.8223 -0.27442,-3.9e-4 -0.54909,-6.2e-4 -0.82352,-0.001 z m 1.40325,-0.65554 -0.36264,0.36263 h 0.72589 z m 0.36325,0.36263 0.51302,0.51364 v -0.51364 z m 0.51302,0.51364 v 0.72407 l 0.36203,-0.36204 z m 0,0.72407 -0.51243,0.51242 h 0.51243 z m -0.51243,0.51242 h -0.72527 l 0.36264,0.36325 z m -0.72527,0 -0.51303,-0.51303 v 0.51303 z m -0.51303,-0.51303 v -0.72467 l -0.36263,0.36203 z m 0,-0.72467 0.51182,-0.51243 h -0.51182 z m 0.67374,-0.12371 -0.28442,0.28441 v 0.40266 l 0.28502,0.28563 h 0.40327 l 0.2844,-0.28502 v -0.40266 l -0.285,-0.28502 z" />
  </g>
</svg>
