<?xml version="1.0" encoding="UTF-8" standalone="no"?>
<!-- Created with Inkscape (http://www.inkscape.org/) -->

<svg
   width="200mm"
   height="199.99997mm"
   viewBox="0 0 200 199.99997"
   version="1.1"
   id="svg1"
   xmlns="http://www.w3.org/2000/svg"
   xmlns:svg="http://www.w3.org/2000/svg">
  <defs
     id="defs1">
    <linearGradient
       id="swatch77">
      <stop
         style="stop-color:#009de5;stop-opacity:1;"
         offset="0"
         id="stop77" />
    </linearGradient>
    <linearGradient
       id="swatch76">
      <stop
         style="stop-color:#009de5;stop-opacity:1;"
         offset="0"
         id="stop76" />
    </linearGradient>
    <linearGradient
       id="swatch75">
      <stop
         style="stop-color:#009de5;stop-opacity:1;"
         offset="0"
         id="stop75" />
    </linearGradient>
    <linearGradient
       id="swatch74">
      <stop
         style="stop-color:#00a3a3;stop-opacity:1;"
         offset="0"
         id="stop74" />
    </linearGradient>
  </defs>
  <g
     id="layer1"
     transform="translate(254.99998,-125.49994)">
    <path
       d="m -145.95409,203.64866 h -18.10851 l -12.78982,12.7891 v 18.09592 l 12.81249,12.81754 h 18.11428 l 12.78982,-12.79465 V 216.4662 Z"
       style="fill:#00c1e5;fill-opacity:1;stroke:#000000;stroke-width:0;stroke-dasharray:none"
       id="path13" />
    <path
       id="path19"
       style="fill:#00c1e5;fill-opacity:1;stroke:#000000;stroke-width:0;stroke-dasharray:none"
       d="m -155.02301,163.16415 -18.25895,18.2697 h 36.51812 z m 18.25917,18.2697 25.84986,25.84817 v -25.84817 z m 25.84986,25.84817 v 36.48161 l 18.236068,-18.23502 z m 0,36.48161 -25.79253,25.8024 h 25.79253 z m -25.79253,25.8024 h -36.52967 l 18.25917,18.26947 z m -36.52967,0 -25.83831,-25.84817 v 25.84817 z m -25.83831,-25.84817 v -36.49317 l -18.23606,18.24658 z m 0,-36.49317 25.79253,-25.79084 h -25.79253 z" />
    <path
       id="path10"
       style="fill:#00c1e5;fill-opacity:1;stroke:#000000;stroke-width:0;stroke-dasharray:none"
       d="m -154.91968,125.49994 c -9.75381,9.7717 -19.54073,19.51007 -29.30632,29.27022 19.53696,0.0222 39.07569,0.0444 58.61286,0.0444 13.78805,13.79482 27.574985,27.59097 41.364138,41.3849 0.002,-13.78371 -0.002,-27.56719 0,-41.35046 -13.787598,0.0129 -27.576528,-0.0222 -41.364138,-0.0444 -9.76625,-9.77081 -19.54051,-19.53363 -29.30654,-29.30466 z m 70.670678,70.70112 c -0.002,19.5094 -0.0111,39.01925 -0.0113,58.52888 9.75425,-9.75482 19.50584,-19.51541 29.26032,-29.27022 -9.75048,-9.75215 -19.49918,-19.50607 -29.24899,-29.25866 z m -0.0113,58.52888 c -13.822935,13.82393 -27.646088,27.65186 -41.467698,41.4769 13.82227,10e-4 27.64543,-0.002 41.467698,0 -8.9e-4,-13.82571 -4.4e-4,-27.6512 0,-41.4769 z m -41.467698,41.4769 c -19.52184,-0.002 -39.04501,-0.0111 -58.56686,-0.0116 l 29.28343,29.30466 c 9.76004,-9.76437 19.52229,-19.52985 29.28343,-29.2931 z m -58.56686,-0.0116 -41.3988,-41.40779 v 41.40779 c 13.79938,-0.001 27.59942,-4.4e-4 41.3988,0 z m -41.3988,-41.40779 0.0116,-58.60954 c -9.77807,9.75526 -19.53966,19.52696 -29.31791,29.28177 z m 0.0116,-58.60954 c 13.82671,-13.7946 27.64142,-27.60097 41.45614,-41.40779 -13.81827,-0.0196 -27.63787,-0.0165 -41.45614,-0.0444 z" />
  </g>
</svg>
